<svg width="400" height="150" viewBox="0 0 400 150" fill="none" xmlns="http://www.w3.org/2000/svg">
<path d="M0 5C0 2.23858 2.23858 0 5 0H370C386.569 0 400 13.4315 400 30V145C400 147.761 397.761 150 395 150H30C13.4315 150 0 136.569 0 120V5Z" fill="#F4F7F8"/>
<path d="M47.2094 60.7273C47.2094 62.2614 46.9324 63.5871 46.3784 64.7045C45.8244 65.822 45.0645 66.6837 44.0986 67.2898C43.1327 67.8958 42.0295 68.1989 40.7889 68.1989C39.5484 68.1989 38.4452 67.8958 37.4793 67.2898C36.5134 66.6837 35.7534 65.822 35.1994 64.7045C34.6455 63.5871 34.3685 62.2614 34.3685 60.7273C34.3685 59.1932 34.6455 57.8674 35.1994 56.75C35.7534 55.6326 36.5134 54.7708 37.4793 54.1648C38.4452 53.5587 39.5484 53.2557 40.7889 53.2557C42.0295 53.2557 43.1327 53.5587 44.0986 54.1648C45.0645 54.7708 45.8244 55.6326 46.3784 56.75C46.9324 57.8674 47.2094 59.1932 47.2094 60.7273ZM45.5048 60.7273C45.5048 59.4678 45.2941 58.4048 44.8727 57.5384C44.4561 56.6719 43.8903 56.0161 43.1753 55.571C42.4651 55.1259 41.6696 54.9034 40.7889 54.9034C39.9082 54.9034 39.1104 55.1259 38.3955 55.571C37.6852 56.0161 37.1194 56.6719 36.698 57.5384C36.2814 58.4048 36.073 59.4678 36.073 60.7273C36.073 61.9867 36.2814 63.0497 36.698 63.9162C37.1194 64.7827 37.6852 65.4384 38.3955 65.8835C39.1104 66.3286 39.9082 66.5511 40.7889 66.5511C41.6696 66.5511 42.4651 66.3286 43.1753 65.8835C43.8903 65.4384 44.4561 64.7827 44.8727 63.9162C45.2941 63.0497 45.5048 61.9867 45.5048 60.7273ZM49.3188 58.6534V57.0909H58.1824V58.6534H54.6028V68H52.9267V58.6534H49.3188ZM60.6274 68V57.0909H65.0876C66.2618 57.0909 67.1946 57.3561 67.8859 57.8864C68.5772 58.4167 68.9228 59.1174 68.9228 59.9886C68.9228 60.6515 68.7263 61.1652 68.3333 61.5298C67.9403 61.8897 67.4361 62.1335 66.8205 62.2614C67.223 62.3182 67.6136 62.4602 67.9924 62.6875C68.3759 62.9148 68.6932 63.2273 68.9441 63.625C69.1951 64.018 69.3205 64.5009 69.3205 65.0739C69.3205 65.6326 69.1785 66.1321 68.8944 66.5724C68.6103 67.0128 68.2031 67.3608 67.6728 67.6165C67.1425 67.8722 66.508 68 65.7694 68H60.6274ZM62.2183 66.4659H65.7694C66.347 66.4659 66.7992 66.3286 67.1259 66.054C67.4526 65.7794 67.616 65.4053 67.616 64.9318C67.616 64.3684 67.4526 63.9257 67.1259 63.6037C66.7992 63.277 66.347 63.1136 65.7694 63.1136H62.2183V66.4659ZM62.2183 61.6648H65.0876C65.5374 61.6648 65.9233 61.6032 66.2453 61.4801C66.5672 61.3523 66.8134 61.1723 66.9839 60.9403C67.1591 60.7036 67.2467 60.4242 67.2467 60.1023C67.2467 59.643 67.0549 59.2831 66.6714 59.0227C66.2879 58.7576 65.7599 58.625 65.0876 58.625H62.2183V61.6648ZM76.4317 68.2273C75.3805 68.2273 74.4738 67.9953 73.7115 67.5312C72.9539 67.0625 72.3692 66.4091 71.9573 65.571C71.5501 64.7282 71.3465 63.7481 71.3465 62.6307C71.3465 61.5133 71.5501 60.5284 71.9573 59.6761C72.3692 58.8191 72.9421 58.1515 73.676 57.6733C74.4146 57.1903 75.2764 56.9489 76.2612 56.9489C76.8294 56.9489 77.3905 57.0436 77.9445 57.233C78.4984 57.4223 79.0027 57.7301 79.4573 58.1562C79.9118 58.5777 80.274 59.1364 80.5439 59.8324C80.8138 60.5284 80.9487 61.3854 80.9487 62.4034V63.1136H72.5396V61.6648H79.2442C79.2442 61.0492 79.1211 60.5 78.8749 60.017C78.6334 59.5341 78.2877 59.1529 77.8379 58.8736C77.3929 58.5942 76.8673 58.4545 76.2612 58.4545C75.5936 58.4545 75.016 58.6203 74.5283 58.9517C74.0453 59.2784 73.6736 59.7045 73.4132 60.2301C73.1528 60.7557 73.0226 61.3191 73.0226 61.9205V62.8864C73.0226 63.7102 73.1646 64.4086 73.4487 64.9815C73.7376 65.5497 74.1377 65.983 74.649 66.2812C75.1604 66.5748 75.7546 66.7216 76.4317 66.7216C76.872 66.7216 77.2698 66.66 77.6249 66.5369C77.9847 66.4091 78.2948 66.2197 78.5553 65.9688C78.8157 65.7131 79.0169 65.3958 79.159 65.017L80.7783 65.4716C80.6078 66.0208 80.3214 66.5038 79.9189 66.9205C79.5164 67.3324 79.0193 67.6544 78.4274 67.8864C77.8356 68.1136 77.1703 68.2273 76.4317 68.2273ZM82.4828 58.6534V57.0909H91.3465V58.6534H87.7669V68H86.0908V58.6534H82.4828ZM95.2403 61.0398H98.3653C99.6437 61.0398 100.621 61.3641 101.299 62.0128C101.976 62.6615 102.314 63.483 102.314 64.4773C102.314 65.1307 102.163 65.7249 101.86 66.2599C101.557 66.7902 101.111 67.214 100.524 67.5312C99.9372 67.8438 99.2176 68 98.3653 68H93.7914V57.0909H95.4676V66.4375H98.3653C99.0282 66.4375 99.5727 66.2623 99.9988 65.9119C100.425 65.5616 100.638 65.1117 100.638 64.5625C100.638 63.9848 100.425 63.5137 99.9988 63.1491C99.5727 62.7846 99.0282 62.6023 98.3653 62.6023H95.2403V61.0398ZM104.047 68V57.0909H105.723V68H104.047ZM121.718 61.7784V63.3409H115.695V61.7784H121.718ZM116.093 57.0909V68H114.416V57.0909H116.093ZM122.996 57.0909V68H121.32V57.0909H122.996ZM129.267 68.2557C128.576 68.2557 127.949 68.1255 127.385 67.8651C126.822 67.5999 126.374 67.2188 126.043 66.7216C125.711 66.2197 125.546 65.6136 125.546 64.9034C125.546 64.2784 125.669 63.7718 125.915 63.3835C126.161 62.9905 126.49 62.6828 126.902 62.4602C127.314 62.2377 127.769 62.072 128.266 61.9631C128.768 61.8494 129.272 61.7595 129.779 61.6932C130.442 61.608 130.979 61.544 131.391 61.5014C131.808 61.4541 132.111 61.3759 132.3 61.267C132.494 61.1581 132.591 60.9687 132.591 60.6989V60.642C132.591 59.9413 132.399 59.3968 132.016 59.0085C131.637 58.6203 131.062 58.4261 130.29 58.4261C129.49 58.4261 128.862 58.6013 128.408 58.9517C127.953 59.3021 127.634 59.6761 127.449 60.0739L125.858 59.5057C126.142 58.8428 126.521 58.3267 126.995 57.9574C127.473 57.5833 127.994 57.3229 128.557 57.1761C129.125 57.0246 129.684 56.9489 130.233 56.9489C130.584 56.9489 130.986 56.9915 131.441 57.0767C131.9 57.1572 132.343 57.3253 132.769 57.581C133.2 57.8366 133.557 58.2225 133.841 58.7386C134.125 59.2547 134.267 59.946 134.267 60.8125V68H132.591V66.5227H132.506C132.392 66.7595 132.203 67.0128 131.938 67.2827C131.673 67.5526 131.32 67.7822 130.879 67.9716C130.439 68.161 129.902 68.2557 129.267 68.2557ZM129.523 66.75C130.186 66.75 130.745 66.6198 131.199 66.3594C131.658 66.099 132.004 65.7628 132.236 65.3509C132.473 64.9389 132.591 64.5057 132.591 64.0511V62.517C132.52 62.6023 132.364 62.6804 132.122 62.7514C131.886 62.8177 131.611 62.8769 131.299 62.929C130.991 62.9763 130.69 63.0189 130.397 63.0568C130.108 63.09 129.873 63.1184 129.693 63.142C129.258 63.1989 128.851 63.2912 128.472 63.419C128.098 63.5421 127.795 63.7292 127.563 63.9801C127.335 64.2263 127.222 64.5625 127.222 64.9886C127.222 65.571 127.437 66.0114 127.868 66.3097C128.304 66.6032 128.855 66.75 129.523 66.75ZM146.56 58.5114C146.181 58.5161 145.8 58.6132 145.416 58.8026C145.037 58.992 144.72 59.2429 144.464 59.5554C144.213 59.8632 144.088 60.2064 144.088 60.5852H142.44C142.44 60.1117 142.554 59.6572 142.781 59.2216C143.008 58.786 143.314 58.3977 143.697 58.0568C144.086 57.7159 144.526 57.446 145.018 57.2472C145.515 57.0483 146.029 56.9489 146.56 56.9489C147.554 56.9489 148.397 57.1998 149.088 57.7017C149.784 58.2036 150.312 58.8665 150.672 59.6903C151.036 60.5142 151.219 61.4091 151.219 62.375V62.7727C151.219 63.7339 151.036 64.6288 150.672 65.4574C150.312 66.2812 149.784 66.9441 149.088 67.446C148.397 67.9479 147.554 68.1989 146.56 68.1989C145.764 68.1989 145.056 68.0237 144.436 67.6733C143.816 67.3182 143.328 66.8447 142.973 66.2528C142.618 65.661 142.44 65.0028 142.44 64.2784H144.088C144.088 64.6903 144.204 65.0762 144.436 65.4361C144.673 65.7912 144.978 66.08 145.352 66.3026C145.731 66.5204 146.133 66.6316 146.56 66.6364C147.194 66.6316 147.734 66.4328 148.179 66.0398C148.624 65.6468 148.962 65.1544 149.194 64.5625C149.426 63.9706 149.542 63.3741 149.542 62.7727V62.375C149.542 61.7595 149.426 61.1581 149.194 60.571C148.967 59.9792 148.631 59.4891 148.186 59.1009C147.746 58.7126 147.203 58.5161 146.56 58.5114ZM150.224 61.7216V63.2841H145.452V61.7216H150.224ZM152.346 58.6534V57.0909H161.21V58.6534H157.63V68H155.954V58.6534H152.346ZM165.331 65.5284L170.587 57.0909H172.518V68H170.842V59.5625L165.615 68H163.655V57.0909H165.331V65.5284ZM182.889 65.5284L188.145 57.0909H190.077V68H188.401V59.5625L183.174 68H181.213V57.0909H182.889V65.5284ZM197.607 71.125V66.4375H198.516C198.739 66.2055 198.931 65.9545 199.091 65.6847C199.252 65.4148 199.392 65.0952 199.511 64.7259C199.634 64.3518 199.738 63.8973 199.823 63.3622C199.908 62.8224 199.984 62.1714 200.05 61.4091L200.42 57.0909H207.351V66.4375H209.028V71.125H207.351V68H199.283V71.125H197.607ZM200.42 66.4375H205.675V58.6534H201.982L201.698 61.4091C201.58 62.5502 201.433 63.5469 201.258 64.3991C201.082 65.2514 200.803 65.9309 200.42 66.4375ZM211.252 72.0909V57.0909H212.872V58.8239H213.071C213.194 58.6345 213.364 58.393 213.582 58.0994C213.804 57.8011 214.122 57.536 214.534 57.304C214.95 57.0672 215.514 56.9489 216.224 56.9489C217.143 56.9489 217.952 57.1785 218.653 57.6378C219.354 58.0971 219.901 58.7481 220.294 59.5909C220.687 60.4337 220.883 61.428 220.883 62.5739C220.883 63.7292 220.687 64.7306 220.294 65.5781C219.901 66.4209 219.356 67.0743 218.66 67.5384C217.964 67.9976 217.161 68.2273 216.252 68.2273C215.552 68.2273 214.991 68.1113 214.569 67.8793C214.148 67.6425 213.823 67.375 213.596 67.0767C213.369 66.7737 213.194 66.5227 213.071 66.3239H212.928V72.0909H211.252ZM212.9 62.5455C212.9 63.3693 213.021 64.0961 213.262 64.7259C213.504 65.3509 213.857 65.8409 214.321 66.196C214.785 66.5464 215.353 66.7216 216.025 66.7216C216.726 66.7216 217.311 66.5369 217.779 66.1676C218.253 65.7936 218.608 65.2917 218.845 64.6619C219.086 64.0275 219.207 63.322 219.207 62.5455C219.207 61.7784 219.089 61.0871 218.852 60.4716C218.62 59.8513 218.267 59.3613 217.794 59.0014C217.325 58.6368 216.735 58.4545 216.025 58.4545C215.343 58.4545 214.77 58.6274 214.306 58.973C213.842 59.3139 213.492 59.7921 213.255 60.4077C213.018 61.0185 212.9 61.7311 212.9 62.5455ZM224.129 72.0909C223.845 72.0909 223.591 72.0672 223.369 72.0199C223.146 71.9773 222.992 71.9347 222.907 71.892L223.333 70.4148C223.741 70.5189 224.1 70.5568 224.413 70.5284C224.725 70.5 225.002 70.3603 225.244 70.1094C225.49 69.8632 225.715 69.4631 225.919 68.9091L226.231 68.0568L222.197 57.0909H224.015L227.027 65.7841H227.14L230.152 57.0909H231.97L227.339 69.5909C227.131 70.1544 226.873 70.6207 226.565 70.9901C226.257 71.3641 225.9 71.6411 225.492 71.821C225.09 72.0009 224.635 72.0909 224.129 72.0909ZM240.915 57.0909V58.6534H235.858V68H234.182V57.0909H240.915ZM245.038 65.5284L250.294 57.0909H252.225V68H250.549V59.5625L245.322 68H243.362V57.0909H245.038V65.5284ZM259.869 68.2273C258.818 68.2273 257.911 67.9953 257.149 67.5312C256.391 67.0625 255.807 66.4091 255.395 65.571C254.988 64.7282 254.784 63.7481 254.784 62.6307C254.784 61.5133 254.988 60.5284 255.395 59.6761C255.807 58.8191 256.38 58.1515 257.114 57.6733C257.852 57.1903 258.714 56.9489 259.699 56.9489C260.267 56.9489 260.828 57.0436 261.382 57.233C261.936 57.4223 262.44 57.7301 262.895 58.1562C263.349 58.5777 263.712 59.1364 263.981 59.8324C264.251 60.5284 264.386 61.3854 264.386 62.4034V63.1136H255.977V61.6648H262.682C262.682 61.0492 262.559 60.5 262.312 60.017C262.071 59.5341 261.725 59.1529 261.275 58.8736C260.83 58.5942 260.305 58.4545 259.699 58.4545C259.031 58.4545 258.453 58.6203 257.966 58.9517C257.483 59.2784 257.111 59.7045 256.851 60.2301C256.59 60.7557 256.46 61.3191 256.46 61.9205V62.8864C256.46 63.7102 256.602 64.4086 256.886 64.9815C257.175 65.5497 257.575 65.983 258.087 66.2812C258.598 66.5748 259.192 66.7216 259.869 66.7216C260.31 66.7216 260.707 66.66 261.062 66.5369C261.422 66.4091 261.732 66.2197 261.993 65.9688C262.253 65.7131 262.454 65.3958 262.596 65.017L264.216 65.4716C264.045 66.0208 263.759 66.5038 263.356 66.9205C262.954 67.3324 262.457 67.6544 261.865 67.8864C261.273 68.1136 260.608 68.2273 259.869 68.2273ZM272.561 68V57.0909H277.021C278.195 57.0909 279.128 57.3561 279.819 57.8864C280.511 58.4167 280.856 59.1174 280.856 59.9886C280.856 60.6515 280.66 61.1652 280.267 61.5298C279.874 61.8897 279.37 62.1335 278.754 62.2614C279.157 62.3182 279.547 62.4602 279.926 62.6875C280.31 62.9148 280.627 63.2273 280.878 63.625C281.129 64.018 281.254 64.5009 281.254 65.0739C281.254 65.6326 281.112 66.1321 280.828 66.5724C280.544 67.0128 280.137 67.3608 279.606 67.6165C279.076 67.8722 278.442 68 277.703 68H272.561ZM274.152 66.4659H277.703C278.281 66.4659 278.733 66.3286 279.06 66.054C279.386 65.7794 279.55 65.4053 279.55 64.9318C279.55 64.3684 279.386 63.9257 279.06 63.6037C278.733 63.277 278.281 63.1136 277.703 63.1136H274.152V66.4659ZM274.152 61.6648H277.021C277.471 61.6648 277.857 61.6032 278.179 61.4801C278.501 61.3523 278.747 61.1723 278.917 60.9403C279.093 60.7036 279.18 60.4242 279.18 60.1023C279.18 59.643 278.989 59.2831 278.605 59.0227C278.221 58.7576 277.694 58.625 277.021 58.625H274.152V61.6648ZM288.223 68.2273C287.238 68.2273 286.374 67.9929 285.631 67.5241C284.892 67.0554 284.315 66.3996 283.898 65.5568C283.486 64.714 283.28 63.7292 283.28 62.6023C283.28 61.4659 283.486 60.474 283.898 59.6264C284.315 58.7789 284.892 58.1207 285.631 57.652C286.374 57.1832 287.238 56.9489 288.223 56.9489C289.208 56.9489 290.07 57.1832 290.808 57.652C291.552 58.1207 292.129 58.7789 292.541 59.6264C292.958 60.474 293.166 61.4659 293.166 62.6023C293.166 63.7292 292.958 64.714 292.541 65.5568C292.129 66.3996 291.552 67.0554 290.808 67.5241C290.07 67.9929 289.208 68.2273 288.223 68.2273ZM288.223 66.7216C288.971 66.7216 289.587 66.5298 290.07 66.1463C290.553 65.7628 290.91 65.2585 291.142 64.6335C291.374 64.0085 291.49 63.3314 291.49 62.6023C291.49 61.8731 291.374 61.1937 291.142 60.5639C290.91 59.9342 290.553 59.4252 290.07 59.0369C289.587 58.6487 288.971 58.4545 288.223 58.4545C287.475 58.4545 286.86 58.6487 286.377 59.0369C285.894 59.4252 285.536 59.9342 285.304 60.5639C285.072 61.1937 284.956 61.8731 284.956 62.6023C284.956 63.3314 285.072 64.0085 285.304 64.6335C285.536 65.2585 285.894 65.7628 286.377 66.1463C286.86 66.5298 287.475 66.7216 288.223 66.7216ZM295.725 68V57.0909H304.305V68H302.628V58.6534H297.401V68H295.725ZM307.366 72.0909V57.0909H308.985V58.8239H309.184C309.307 58.6345 309.477 58.393 309.695 58.0994C309.918 57.8011 310.235 57.536 310.647 57.304C311.064 57.0672 311.627 56.9489 312.337 56.9489C313.256 56.9489 314.065 57.1785 314.766 57.6378C315.467 58.0971 316.014 58.7481 316.407 59.5909C316.8 60.4337 316.996 61.428 316.996 62.5739C316.996 63.7292 316.8 64.7306 316.407 65.5781C316.014 66.4209 315.469 67.0743 314.773 67.5384C314.077 67.9976 313.275 68.2273 312.366 68.2273C311.665 68.2273 311.104 68.1113 310.682 67.8793C310.261 67.6425 309.937 67.375 309.709 67.0767C309.482 66.7737 309.307 66.5227 309.184 66.3239H309.042V72.0909H307.366ZM309.013 62.5455C309.013 63.3693 309.134 64.0961 309.376 64.7259C309.617 65.3509 309.97 65.8409 310.434 66.196C310.898 66.5464 311.466 66.7216 312.138 66.7216C312.839 66.7216 313.424 66.5369 313.893 66.1676C314.366 65.7936 314.721 65.2917 314.958 64.6619C315.199 64.0275 315.32 63.322 315.32 62.5455C315.32 61.7784 315.202 61.0871 314.965 60.4716C314.733 59.8513 314.38 59.3613 313.907 59.0014C313.438 58.6368 312.849 58.4545 312.138 58.4545C311.457 58.4545 310.884 58.6274 310.42 58.973C309.956 59.3139 309.605 59.7921 309.368 60.4077C309.132 61.0185 309.013 61.7311 309.013 62.5455ZM323.985 68.2273C323 68.2273 322.136 67.9929 321.393 67.5241C320.654 67.0554 320.076 66.3996 319.66 65.5568C319.248 64.714 319.042 63.7292 319.042 62.6023C319.042 61.4659 319.248 60.474 319.66 59.6264C320.076 58.7789 320.654 58.1207 321.393 57.652C322.136 57.1832 323 56.9489 323.985 56.9489C324.97 56.9489 325.832 57.1832 326.57 57.652C327.314 58.1207 327.891 58.7789 328.303 59.6264C328.72 60.474 328.928 61.4659 328.928 62.6023C328.928 63.7292 328.72 64.714 328.303 65.5568C327.891 66.3996 327.314 67.0554 326.57 67.5241C325.832 67.9929 324.97 68.2273 323.985 68.2273ZM323.985 66.7216C324.733 66.7216 325.349 66.5298 325.832 66.1463C326.314 65.7628 326.672 65.2585 326.904 64.6335C327.136 64.0085 327.252 63.3314 327.252 62.6023C327.252 61.8731 327.136 61.1937 326.904 60.5639C326.672 59.9342 326.314 59.4252 325.832 59.0369C325.349 58.6487 324.733 58.4545 323.985 58.4545C323.237 58.4545 322.621 58.6487 322.138 59.0369C321.655 59.4252 321.298 59.9342 321.066 60.5639C320.834 61.1937 320.718 61.8731 320.718 62.6023C320.718 63.3314 320.834 64.0085 321.066 64.6335C321.298 65.2585 321.655 65.7628 322.138 66.1463C322.621 66.5298 323.237 66.7216 323.985 66.7216ZM335.919 68.2273C334.896 68.2273 334.015 67.9858 333.277 67.5028C332.538 67.0199 331.97 66.3546 331.572 65.5071C331.174 64.6596 330.975 63.6913 330.975 62.6023C330.975 61.4943 331.179 60.5166 331.586 59.669C331.998 58.8168 332.571 58.1515 333.305 57.6733C334.044 57.1903 334.905 56.9489 335.89 56.9489C336.657 56.9489 337.348 57.0909 337.964 57.375C338.58 57.6591 339.084 58.0568 339.477 58.5682C339.87 59.0795 340.114 59.6761 340.208 60.358H338.532C338.404 59.8608 338.12 59.4205 337.68 59.0369C337.244 58.6487 336.657 58.4545 335.919 58.4545C335.265 58.4545 334.692 58.625 334.2 58.9659C333.712 59.3021 333.331 59.7779 333.056 60.3935C332.786 61.0043 332.652 61.7216 332.652 62.5455C332.652 63.3883 332.784 64.1222 333.049 64.7472C333.319 65.3722 333.698 65.8575 334.186 66.2031C334.678 66.5488 335.256 66.7216 335.919 66.7216C336.354 66.7216 336.75 66.6458 337.105 66.4943C337.46 66.3428 337.76 66.125 338.007 65.8409C338.253 65.5568 338.428 65.2159 338.532 64.8182H340.208C340.114 65.4621 339.879 66.0421 339.505 66.5582C339.136 67.0696 338.646 67.4768 338.035 67.7798C337.429 68.0781 336.723 68.2273 335.919 68.2273ZM344.107 61.0398H347.232C348.511 61.0398 349.489 61.3641 350.166 62.0128C350.843 62.6615 351.181 63.483 351.181 64.4773C351.181 65.1307 351.03 65.7249 350.727 66.2599C350.424 66.7902 349.979 67.214 349.392 67.5312C348.804 67.8438 348.085 68 347.232 68H342.659V57.0909H344.335V66.4375H347.232C347.895 66.4375 348.44 66.2623 348.866 65.9119C349.292 65.5616 349.505 65.1117 349.505 64.5625C349.505 63.9848 349.292 63.5137 348.866 63.1491C348.44 62.7846 347.895 62.6023 347.232 62.6023H344.107V61.0398ZM352.914 68V57.0909H354.59V68H352.914ZM34.7094 96V85.0909H39.1696C40.3439 85.0909 41.2766 85.3561 41.9679 85.8864C42.6592 86.4167 43.0048 87.1174 43.0048 87.9886C43.0048 88.6515 42.8083 89.1652 42.4153 89.5298C42.0224 89.8897 41.5181 90.1335 40.9026 90.2614C41.305 90.3182 41.6957 90.4602 42.0744 90.6875C42.458 90.9148 42.7752 91.2273 43.0261 91.625C43.2771 92.018 43.4026 92.5009 43.4026 93.0739C43.4026 93.6326 43.2605 94.1321 42.9764 94.5724C42.6923 95.0128 42.2851 95.3608 41.7548 95.6165C41.2245 95.8722 40.5901 96 39.8514 96H34.7094ZM36.3003 94.4659H39.8514C40.4291 94.4659 40.8813 94.3286 41.208 94.054C41.5347 93.7794 41.698 93.4053 41.698 92.9318C41.698 92.3684 41.5347 91.9257 41.208 91.6037C40.8813 91.277 40.4291 91.1136 39.8514 91.1136H36.3003V94.4659ZM36.3003 89.6648H39.1696C39.6194 89.6648 40.0053 89.6032 40.3273 89.4801C40.6493 89.3523 40.8955 89.1723 41.0659 88.9403C41.2411 88.7036 41.3287 88.4242 41.3287 88.1023C41.3287 87.643 41.1369 87.2831 40.7534 87.0227C40.3699 86.7576 39.842 86.625 39.1696 86.625H36.3003V89.6648ZM47.3887 89.0398H50.5137C51.7921 89.0398 52.7699 89.3641 53.447 90.0128C54.124 90.6615 54.4626 91.483 54.4626 92.4773C54.4626 93.1307 54.3111 93.7249 54.008 94.2599C53.705 94.7902 53.2599 95.214 52.6728 95.5312C52.0857 95.8438 51.366 96 50.5137 96H45.9399V85.0909H47.616V94.4375H50.5137C51.1766 94.4375 51.7211 94.2623 52.1472 93.9119C52.5734 93.5616 52.7864 93.1117 52.7864 92.5625C52.7864 91.9848 52.5734 91.5137 52.1472 91.1491C51.7211 90.7846 51.1766 90.6023 50.5137 90.6023H47.3887V89.0398ZM56.1955 96V85.0909H57.8717V96H56.1955ZM73.866 89.7784V91.3409H67.8433V89.7784H73.866ZM68.241 85.0909V96H66.5649V85.0909H68.241ZM75.1444 85.0909V96H73.4683V85.0909H75.1444ZM81.4157 96.2557C80.7244 96.2557 80.097 96.1255 79.5336 95.8651C78.9702 95.5999 78.5227 95.2188 78.1913 94.7216C77.8598 94.2197 77.6941 93.6136 77.6941 92.9034C77.6941 92.2784 77.8172 91.7718 78.0634 91.3835C78.3096 90.9905 78.6387 90.6828 79.0506 90.4602C79.4626 90.2377 79.9171 90.072 80.4143 89.9631C80.9162 89.8494 81.4204 89.7595 81.9271 89.6932C82.5899 89.608 83.1274 89.544 83.5393 89.5014C83.956 89.4541 84.259 89.3759 84.4484 89.267C84.6425 89.1581 84.7396 88.9687 84.7396 88.6989V88.642C84.7396 87.9413 84.5478 87.3968 84.1643 87.0085C83.7855 86.6203 83.2102 86.4261 82.4384 86.4261C81.6382 86.4261 81.0109 86.6013 80.5563 86.9517C80.1018 87.3021 79.7822 87.6761 79.5975 88.0739L78.0066 87.5057C78.2907 86.8428 78.6695 86.3267 79.143 85.9574C79.6212 85.5833 80.142 85.3229 80.7055 85.1761C81.2737 85.0246 81.8324 84.9489 82.3816 84.9489C82.732 84.9489 83.1345 84.9915 83.589 85.0767C84.0483 85.1572 84.491 85.3253 84.9171 85.581C85.348 85.8366 85.7055 86.2225 85.9896 86.7386C86.2737 87.2547 86.4157 87.946 86.4157 88.8125V96H84.7396V94.5227H84.6543C84.5407 94.7595 84.3513 95.0128 84.0862 95.2827C83.821 95.5526 83.4683 95.7822 83.0279 95.9716C82.5876 96.161 82.0502 96.2557 81.4157 96.2557ZM81.6714 94.75C82.3343 94.75 82.893 94.6198 83.3475 94.3594C83.8068 94.099 84.1524 93.7628 84.3845 93.3509C84.6212 92.9389 84.7396 92.5057 84.7396 92.0511V90.517C84.6685 90.6023 84.5123 90.6804 84.2708 90.7514C84.0341 90.8177 83.7595 90.8769 83.447 90.929C83.1392 90.9763 82.8385 91.0189 82.545 91.0568C82.2561 91.09 82.0218 91.1184 81.8418 91.142C81.4062 91.1989 80.999 91.2912 80.6203 91.419C80.2462 91.5421 79.9432 91.7292 79.7112 91.9801C79.4839 92.2263 79.3703 92.5625 79.3703 92.9886C79.3703 93.571 79.5857 94.0114 80.0166 94.3097C80.4522 94.6032 81.0038 94.75 81.6714 94.75ZM91.1511 93.5284L96.4068 85.0909H98.3386V96H96.6625V87.5625L91.4352 96H89.475V85.0909H91.1511V93.5284ZM95.2989 81.4545H96.8614C96.8614 82.2216 96.5962 82.849 96.0659 83.3366C95.5356 83.8243 94.8159 84.0682 93.9068 84.0682C93.0119 84.0682 92.2993 83.8243 91.769 83.3366C91.2435 82.849 90.9807 82.2216 90.9807 81.4545H92.5432C92.5432 81.8239 92.645 82.1482 92.8486 82.4276C93.0569 82.7069 93.4097 82.8466 93.9068 82.8466C94.404 82.8466 94.7591 82.7069 94.9722 82.4276C95.19 82.1482 95.2989 81.8239 95.2989 81.4545ZM100.244 99.125V94.4375H101.153C101.375 94.2055 101.567 93.9545 101.728 93.6847C101.889 93.4148 102.029 93.0952 102.147 92.7259C102.27 92.3518 102.375 91.8973 102.46 91.3622C102.545 90.8224 102.621 90.1714 102.687 89.4091L103.056 85.0909H109.988V94.4375H111.664V99.125H109.988V96H101.92V99.125H100.244ZM103.056 94.4375H108.312V86.6534H104.619L104.335 89.4091C104.216 90.5502 104.07 91.5469 103.894 92.3991C103.719 93.2514 103.44 93.9309 103.056 94.4375ZM118.463 96.2273C117.412 96.2273 116.505 95.9953 115.743 95.5312C114.985 95.0625 114.4 94.4091 113.989 93.571C113.581 92.7282 113.378 91.7481 113.378 90.6307C113.378 89.5133 113.581 88.5284 113.989 87.6761C114.4 86.8191 114.973 86.1515 115.707 85.6733C116.446 85.1903 117.308 84.9489 118.292 84.9489C118.861 84.9489 119.422 85.0436 119.976 85.233C120.53 85.4223 121.034 85.7301 121.489 86.1562C121.943 86.5777 122.305 87.1364 122.575 87.8324C122.845 88.5284 122.98 89.3854 122.98 90.4034V91.1136H114.571V89.6648H121.275C121.275 89.0492 121.152 88.5 120.906 88.017C120.665 87.5341 120.319 87.1529 119.869 86.8736C119.424 86.5942 118.899 86.4545 118.292 86.4545C117.625 86.4545 117.047 86.6203 116.56 86.9517C116.077 87.2784 115.705 87.7045 115.444 88.2301C115.184 88.7557 115.054 89.3191 115.054 89.9205V90.8864C115.054 91.7102 115.196 92.4086 115.48 92.9815C115.769 93.5497 116.169 93.983 116.68 94.2812C117.192 94.5748 117.786 94.7216 118.463 94.7216C118.903 94.7216 119.301 94.66 119.656 94.5369C120.016 94.4091 120.326 94.2197 120.587 93.9688C120.847 93.7131 121.048 93.3958 121.19 93.017L122.81 93.4716C122.639 94.0208 122.353 94.5038 121.95 94.9205C121.548 95.3324 121.051 95.6544 120.459 95.8864C119.867 96.1136 119.202 96.2273 118.463 96.2273ZM124.514 86.6534V85.0909H133.378V86.6534H129.798V96H128.122V86.6534H124.514ZM139.83 96.2273C138.779 96.2273 137.872 95.9953 137.11 95.5312C136.352 95.0625 135.768 94.4091 135.356 93.571C134.948 92.7282 134.745 91.7481 134.745 90.6307C134.745 89.5133 134.948 88.5284 135.356 87.6761C135.768 86.8191 136.341 86.1515 137.074 85.6733C137.813 85.1903 138.675 84.9489 139.66 84.9489C140.228 84.9489 140.789 85.0436 141.343 85.233C141.897 85.4223 142.401 85.7301 142.856 86.1562C143.31 86.5777 143.672 87.1364 143.942 87.8324C144.212 88.5284 144.347 89.3854 144.347 90.4034V91.1136H135.938V89.6648H142.643C142.643 89.0492 142.52 88.5 142.273 88.017C142.032 87.5341 141.686 87.1529 141.236 86.8736C140.791 86.5942 140.266 86.4545 139.66 86.4545C138.992 86.4545 138.414 86.6203 137.927 86.9517C137.444 87.2784 137.072 87.7045 136.812 88.2301C136.551 88.7557 136.421 89.3191 136.421 89.9205V90.8864C136.421 91.7102 136.563 92.4086 136.847 92.9815C137.136 93.5497 137.536 93.983 138.047 94.2812C138.559 94.5748 139.153 94.7216 139.83 94.7216C140.27 94.7216 140.668 94.66 141.023 94.5369C141.383 94.4091 141.693 94.2197 141.954 93.9688C142.214 93.7131 142.415 93.3958 142.557 93.017L144.177 93.4716C144.006 94.0208 143.72 94.5038 143.317 94.9205C142.915 95.3324 142.418 95.6544 141.826 95.8864C141.234 96.1136 140.569 96.2273 139.83 96.2273ZM149.397 94.0114L149.283 94.7784C149.203 95.3182 149.08 95.8958 148.914 96.5114C148.753 97.1269 148.585 97.7069 148.41 98.2514C148.234 98.7959 148.09 99.2292 147.976 99.5511H146.698C146.76 99.2481 146.84 98.848 146.939 98.3509C147.039 97.8537 147.138 97.2973 147.238 96.6818C147.342 96.071 147.427 95.446 147.493 94.8068L147.579 94.0114H149.397ZM157.801 96V85.0909H167.339V96H164.448V87.4702H160.656V96H157.801ZM174.683 96.2131C173.58 96.2131 172.625 95.9787 171.821 95.5099C171.02 95.0365 170.402 94.3783 169.967 93.5355C169.531 92.688 169.313 91.7055 169.313 90.5881C169.313 89.4612 169.531 88.4763 169.967 87.6335C170.402 86.786 171.02 86.1278 171.821 85.6591C172.625 85.1856 173.58 84.9489 174.683 84.9489C175.786 84.9489 176.738 85.1856 177.538 85.6591C178.343 86.1278 178.963 86.786 179.399 87.6335C179.834 88.4763 180.052 89.4612 180.052 90.5881C180.052 91.7055 179.834 92.688 179.399 93.5355C178.963 94.3783 178.343 95.0365 177.538 95.5099C176.738 95.9787 175.786 96.2131 174.683 96.2131ZM174.697 93.8693C175.199 93.8693 175.618 93.7273 175.954 93.4432C176.29 93.1544 176.544 92.7614 176.714 92.2642C176.889 91.767 176.977 91.2012 176.977 90.5668C176.977 89.9323 176.889 89.3665 176.714 88.8693C176.544 88.3722 176.29 87.9792 175.954 87.6903C175.618 87.4015 175.199 87.2571 174.697 87.2571C174.19 87.2571 173.764 87.4015 173.419 87.6903C173.078 87.9792 172.82 88.3722 172.644 88.8693C172.474 89.3665 172.389 89.9323 172.389 90.5668C172.389 91.2012 172.474 91.767 172.644 92.2642C172.82 92.7614 173.078 93.1544 173.419 93.4432C173.764 93.7273 174.19 93.8693 174.697 93.8693ZM186.948 96.2131C185.831 96.2131 184.87 95.9763 184.065 95.5028C183.265 95.0246 182.649 94.3617 182.218 93.5142C181.792 92.6667 181.579 91.6913 181.579 90.5881C181.579 89.4706 181.794 88.4905 182.225 87.6477C182.661 86.8002 183.279 86.1397 184.079 85.6662C184.879 85.188 185.831 84.9489 186.934 84.9489C187.886 84.9489 188.719 85.1217 189.434 85.4673C190.149 85.813 190.715 86.2983 191.132 86.9233C191.548 87.5483 191.778 88.2822 191.821 89.125H188.965C188.885 88.5805 188.672 88.1425 188.326 87.8111C187.985 87.4749 187.538 87.3068 186.984 87.3068C186.515 87.3068 186.106 87.4347 185.755 87.6903C185.41 87.9413 185.14 88.3082 184.946 88.7912C184.751 89.2741 184.654 89.8589 184.654 90.5455C184.654 91.2415 184.749 91.8333 184.938 92.321C185.133 92.8087 185.405 93.1804 185.755 93.4361C186.106 93.6918 186.515 93.8196 186.984 93.8196C187.33 93.8196 187.64 93.7486 187.914 93.6065C188.194 93.4645 188.423 93.2585 188.603 92.9886C188.788 92.714 188.909 92.3849 188.965 92.0014H191.821C191.773 92.8348 191.546 93.5687 191.139 94.2031C190.736 94.8329 190.18 95.3253 189.47 95.6804C188.759 96.0355 187.919 96.2131 186.948 96.2131ZM200.207 92.6548L203.161 85.0909H205.462L201.208 96H199.198L195.043 85.0909H197.337L200.207 92.6548ZM196.648 85.0909V96H193.758V85.0909H196.648ZM203.914 96V85.0909H206.769V96H203.914ZM214.038 96.2131C212.935 96.2131 211.981 95.9787 211.176 95.5099C210.376 95.0365 209.758 94.3783 209.322 93.5355C208.887 92.688 208.669 91.7055 208.669 90.5881C208.669 89.4612 208.887 88.4763 209.322 87.6335C209.758 86.786 210.376 86.1278 211.176 85.6591C211.981 85.1856 212.935 84.9489 214.038 84.9489C215.141 84.9489 216.093 85.1856 216.893 85.6591C217.698 86.1278 218.319 86.786 218.754 87.6335C219.19 88.4763 219.408 89.4612 219.408 90.5881C219.408 91.7055 219.19 92.688 218.754 93.5355C218.319 94.3783 217.698 95.0365 216.893 95.5099C216.093 95.9787 215.141 96.2131 214.038 96.2131ZM214.052 93.8693C214.554 93.8693 214.973 93.7273 215.31 93.4432C215.646 93.1544 215.899 92.7614 216.069 92.2642C216.245 91.767 216.332 91.2012 216.332 90.5668C216.332 89.9323 216.245 89.3665 216.069 88.8693C215.899 88.3722 215.646 87.9792 215.31 87.6903C214.973 87.4015 214.554 87.2571 214.052 87.2571C213.546 87.2571 213.12 87.4015 212.774 87.6903C212.433 87.9792 212.175 88.3722 212 88.8693C211.829 89.3665 211.744 89.9323 211.744 90.5668C211.744 91.2012 211.829 91.767 212 92.2642C212.175 92.7614 212.433 93.1544 212.774 93.4432C213.12 93.7273 213.546 93.8693 214.052 93.8693ZM220.318 87.4702V85.0909H230.205V87.4702H226.689V96H223.806V87.4702H220.318ZM232.039 100.091V85.0909H235.022V86.9233H235.157C235.289 86.6297 235.481 86.3314 235.732 86.0284C235.988 85.7206 236.319 85.465 236.726 85.2614C237.138 85.053 237.65 84.9489 238.261 84.9489C239.056 84.9489 239.79 85.1572 240.462 85.5739C241.135 85.9858 241.672 86.6084 242.074 87.4418C242.477 88.2704 242.678 89.3097 242.678 90.5597C242.678 91.7765 242.482 92.804 242.089 93.642C241.7 94.4754 241.17 95.1075 240.498 95.5384C239.83 95.9645 239.082 96.1776 238.253 96.1776C237.666 96.1776 237.167 96.0805 236.755 95.8864C236.348 95.6922 236.014 95.4484 235.753 95.1548C235.493 94.8565 235.294 94.5559 235.157 94.2528H235.064V100.091H232.039ZM235.001 90.5455C235.001 91.1941 235.091 91.7599 235.27 92.2429C235.45 92.7259 235.711 93.1023 236.052 93.3722C236.393 93.6373 236.807 93.7699 237.295 93.7699C237.787 93.7699 238.204 93.6349 238.545 93.3651C238.886 93.0904 239.144 92.7116 239.319 92.2287C239.499 91.741 239.589 91.1799 239.589 90.5455C239.589 89.9157 239.501 89.3617 239.326 88.8835C239.151 88.4053 238.893 88.0312 238.552 87.7614C238.211 87.4915 237.792 87.3565 237.295 87.3565C236.802 87.3565 236.386 87.4867 236.045 87.7472C235.708 88.0076 235.45 88.3769 235.27 88.8551C235.091 89.3333 235.001 89.8968 235.001 90.5455ZM249.667 96.2131C248.545 96.2131 247.579 95.9858 246.769 95.5312C245.964 95.072 245.344 94.4233 244.908 93.5852C244.473 92.7424 244.255 91.7457 244.255 90.5952C244.255 89.473 244.473 88.4882 244.908 87.6406C245.344 86.7931 245.957 86.1326 246.748 85.6591C247.543 85.1856 248.476 84.9489 249.546 84.9489C250.266 84.9489 250.936 85.0649 251.556 85.2969C252.181 85.5241 252.725 85.8674 253.189 86.3267C253.658 86.786 254.023 87.3636 254.283 88.0597C254.544 88.7509 254.674 89.5606 254.674 90.4886V91.3196H245.462V89.4446H251.826C251.826 89.009 251.731 88.6231 251.542 88.2869C251.352 87.9508 251.09 87.688 250.753 87.4986C250.422 87.3045 250.036 87.2074 249.596 87.2074C249.136 87.2074 248.729 87.3139 248.374 87.527C248.024 87.7353 247.749 88.017 247.55 88.3722C247.351 88.7225 247.25 89.1132 247.245 89.544V91.3267C247.245 91.8665 247.344 92.3329 247.543 92.7259C247.747 93.1188 248.033 93.4219 248.403 93.6349C248.772 93.848 249.21 93.9545 249.716 93.9545C250.053 93.9545 250.36 93.9072 250.64 93.8125C250.919 93.7178 251.158 93.5758 251.357 93.3864C251.556 93.197 251.707 92.965 251.812 92.6903L254.61 92.875C254.468 93.5473 254.177 94.1345 253.736 94.6364C253.301 95.1335 252.737 95.5218 252.046 95.8011C251.359 96.0758 250.566 96.2131 249.667 96.2131ZM256.648 96V85.0909H261.3C262.645 85.0909 263.708 85.3466 264.489 85.858C265.27 86.3693 265.661 87.0961 265.661 88.0384C265.661 88.6302 265.441 89.1226 265.001 89.5156C264.56 89.9086 263.949 90.1738 263.168 90.3111C263.822 90.3584 264.378 90.5076 264.837 90.7585C265.301 91.0047 265.654 91.3243 265.895 91.7173C266.142 92.1103 266.265 92.5459 266.265 93.0241C266.265 93.6444 266.099 94.1771 265.768 94.6222C265.441 95.0672 264.96 95.4081 264.326 95.6449C263.696 95.8816 262.927 96 262.018 96H256.648ZM259.468 93.7344H262.018C262.439 93.7344 262.768 93.6349 263.005 93.4361C263.246 93.2325 263.367 92.9555 263.367 92.6051C263.367 92.2169 263.246 91.9115 263.005 91.6889C262.768 91.4664 262.439 91.3551 262.018 91.3551H259.468V93.7344ZM259.468 89.5795H261.364C261.667 89.5795 261.925 89.5369 262.138 89.4517C262.356 89.3617 262.522 89.2339 262.636 89.0682C262.754 88.9025 262.813 88.706 262.813 88.4787C262.813 88.1425 262.678 87.8797 262.408 87.6903C262.138 87.5009 261.769 87.4062 261.3 87.4062H259.468V89.5795ZM272.801 96V85.0909H277.453C278.797 85.0909 279.86 85.3466 280.642 85.858C281.423 86.3693 281.813 87.0961 281.813 88.0384C281.813 88.6302 281.593 89.1226 281.153 89.5156C280.713 89.9086 280.102 90.1738 279.321 90.3111C279.974 90.3584 280.53 90.5076 280.99 90.7585C281.454 91.0047 281.806 91.3243 282.048 91.7173C282.294 92.1103 282.417 92.5459 282.417 93.0241C282.417 93.6444 282.251 94.1771 281.92 94.6222C281.593 95.0672 281.113 95.4081 280.478 95.6449C279.848 95.8816 279.079 96 278.17 96H272.801ZM275.62 93.7344H278.17C278.591 93.7344 278.92 93.6349 279.157 93.4361C279.399 93.2325 279.519 92.9555 279.519 92.6051C279.519 92.2169 279.399 91.9115 279.157 91.6889C278.92 91.4664 278.591 91.3551 278.17 91.3551H275.62V93.7344ZM275.62 89.5795H277.517C277.82 89.5795 278.078 89.5369 278.291 89.4517C278.509 89.3617 278.674 89.2339 278.788 89.0682C278.906 88.9025 278.965 88.706 278.965 88.4787C278.965 88.1425 278.83 87.8797 278.561 87.6903C278.291 87.5009 277.921 87.4062 277.453 87.4062H275.62V89.5795ZM287.215 92.0085L291.142 85.0909H294.125V96H291.242V89.0611L287.328 96H284.324V85.0909H287.215V92.0085ZM295.698 99.196V93.5994H296.536C296.778 93.4479 296.972 93.2064 297.119 92.875C297.27 92.5436 297.393 92.1529 297.488 91.7031C297.588 91.2533 297.663 90.768 297.715 90.2472C297.772 89.7216 297.822 89.1913 297.865 88.6562L298.149 85.0909H306.515V93.5994H308.205V99.196H305.322V96H298.653V99.196H295.698ZM299.548 93.5994H303.66V87.4205H300.72L300.606 88.6562C300.526 89.821 300.41 90.8106 300.258 91.625C300.107 92.4347 299.87 93.0928 299.548 93.5994ZM314.94 96.2131C313.818 96.2131 312.852 95.9858 312.042 95.5312C311.238 95.072 310.617 94.4233 310.182 93.5852C309.746 92.7424 309.528 91.7457 309.528 90.5952C309.528 89.473 309.746 88.4882 310.182 87.6406C310.617 86.7931 311.23 86.1326 312.021 85.6591C312.817 85.1856 313.749 84.9489 314.819 84.9489C315.539 84.9489 316.209 85.0649 316.829 85.2969C317.454 85.5241 317.999 85.8674 318.463 86.3267C318.932 86.786 319.296 87.3636 319.557 88.0597C319.817 88.7509 319.947 89.5606 319.947 90.4886V91.3196H310.736V89.4446H317.099C317.099 89.009 317.005 88.6231 316.815 88.2869C316.626 87.9508 316.363 87.688 316.027 87.4986C315.695 87.3045 315.31 87.2074 314.869 87.2074C314.41 87.2074 314.003 87.3139 313.648 87.527C313.297 87.7353 313.023 88.017 312.824 88.3722C312.625 88.7225 312.523 89.1132 312.518 89.544V91.3267C312.518 91.8665 312.618 92.3329 312.817 92.7259C313.02 93.1188 313.307 93.4219 313.676 93.6349C314.045 93.848 314.483 93.9545 314.99 93.9545C315.326 93.9545 315.634 93.9072 315.913 93.8125C316.193 93.7178 316.432 93.5758 316.631 93.3864C316.829 93.197 316.981 92.965 317.085 92.6903L319.883 92.875C319.741 93.5473 319.45 94.1345 319.01 94.6364C318.574 95.1335 318.011 95.5218 317.319 95.8011C316.633 96.0758 315.84 96.2131 314.94 96.2131ZM326.851 96.2131C325.747 96.2131 324.793 95.9787 323.989 95.5099C323.188 95.0365 322.57 94.3783 322.135 93.5355C321.699 92.688 321.481 91.7055 321.481 90.5881C321.481 89.4612 321.699 88.4763 322.135 87.6335C322.57 86.786 323.188 86.1278 323.989 85.6591C324.793 85.1856 325.747 84.9489 326.851 84.9489C327.954 84.9489 328.906 85.1856 329.706 85.6591C330.511 86.1278 331.131 86.786 331.567 87.6335C332.002 88.4763 332.22 89.4612 332.22 90.5881C332.22 91.7055 332.002 92.688 331.567 93.5355C331.131 94.3783 330.511 95.0365 329.706 95.5099C328.906 95.9787 327.954 96.2131 326.851 96.2131ZM326.865 93.8693C327.367 93.8693 327.786 93.7273 328.122 93.4432C328.458 93.1544 328.712 92.7614 328.882 92.2642C329.057 91.767 329.145 91.2012 329.145 90.5668C329.145 89.9323 329.057 89.3665 328.882 88.8693C328.712 88.3722 328.458 87.9792 328.122 87.6903C327.786 87.4015 327.367 87.2571 326.865 87.2571C326.358 87.2571 325.932 87.4015 325.587 87.6903C325.246 87.9792 324.988 88.3722 324.812 88.8693C324.642 89.3665 324.557 89.9323 324.557 90.5668C324.557 91.2012 324.642 91.767 324.812 92.2642C324.988 92.7614 325.246 93.1544 325.587 93.4432C325.932 93.7273 326.358 93.8693 326.865 93.8693ZM335.956 96.1847C335.487 96.1847 335.085 96.0189 334.748 95.6875C334.417 95.3513 334.251 94.9489 334.251 94.4801C334.251 94.0161 334.417 93.6184 334.748 93.2869C335.085 92.9555 335.487 92.7898 335.956 92.7898C336.41 92.7898 336.808 92.9555 337.149 93.2869C337.49 93.6184 337.66 94.0161 337.66 94.4801C337.66 94.7926 337.58 95.0791 337.419 95.3395C337.263 95.5952 337.057 95.8011 336.801 95.9574C336.545 96.1089 336.264 96.1847 335.956 96.1847Z" fill="#36302E"/>
<path d="M5.5 10C5.5 7.51472 7.51472 5.5 10 5.5H367C382.188 5.5 394.5 17.8122 394.5 33V140C394.5 142.485 392.485 144.5 390 144.5H33C17.8122 144.5 5.5 132.188 5.5 117V10Z" stroke="#E7E7E7"/>
</svg>
