<svg width="55" height="35" viewBox="0 0 55 35" fill="none" xmlns="http://www.w3.org/2000/svg">
<path fill-rule="evenodd" clip-rule="evenodd" d="M52.0372 19.3468C51.7589 19.1719 51.0473 19.5172 50.9134 19.892C50.826 20.1367 50.8606 21.742 50.9986 23.8441C51.0957 25.324 51.5241 29.9253 51.6342 30.6731L51.6925 31.0688L51.4529 31.0008C51.3213 30.9635 50.6733 30.711 50.0132 30.4398C48.0649 29.6393 46.2862 28.6705 43.9459 27.135C43.3479 26.7427 42.9996 26.7026 42.5219 26.971C41.925 27.3064 41.6623 27.9654 41.9137 28.4974C42.239 29.1861 46.7153 31.8086 49.4047 32.886C50.7383 33.4204 52.2747 33.9404 52.9244 34.0775C53.3233 34.1616 53.4475 34.148 53.7299 33.9894C54.1489 33.7539 54.4408 33.2565 54.4269 32.802C54.4046 32.0793 53.8509 27.7581 53.4846 25.4487C52.8052 21.1653 52.4329 19.5957 52.0372 19.3468ZM46.5354 17.7901C44.7952 15.9256 42.7451 14.4943 40.495 13.5734C39.6432 13.2247 38.175 12.7815 37.6515 12.7152L37.3107 12.6719L37.4343 11.8324C37.7176 9.90816 37.2781 8.3343 36.0042 6.71246C35.2792 5.78936 34.7126 5.25769 33.6027 4.45884C32.0176 3.31803 29.7491 2.31122 27.5549 1.77468C25.2132 1.2021 21.9535 0.887888 19.2725 0.976402C13.1561 1.17826 6.68234 3.00141 1.07886 6.10003L0.333881 6.51208L0.306603 6.80131C0.269855 7.19122 0.474775 7.45643 0.875477 7.53749C1.17341 7.59779 1.27011 7.56522 2.17329 7.10066C8.33816 3.92979 15.0481 2.45651 21.8926 2.77098C23.4013 2.8403 26.1065 3.24901 27.2797 3.58484C29.0934 4.1041 31.0193 4.97939 32.1828 5.81335C33.3706 6.66473 34.6862 8.11386 35.0753 8.99954C35.3896 9.71476 35.4788 10.6107 35.3284 11.5382L35.1935 12.3687L34.7595 12.361C31.5455 12.3034 28.3684 13.0695 25.654 14.5566C22.7129 16.168 20.9311 18.8449 21.3002 21.0978C21.7135 23.6209 23.6378 24.9365 26.1983 24.4466C29.4204 23.8301 33.421 20.2807 35.9365 15.8067C36.2138 15.3135 36.4638 14.8934 36.4921 14.8731C36.5933 14.8004 38.168 15.2212 39.1498 15.5833C43.5841 17.2187 46.9718 20.9669 48.1909 25.5864C48.4686 26.6385 48.677 26.9859 49.1293 27.1506C49.8253 27.4041 50.6246 27.1103 50.7937 26.5387C50.9411 26.0407 50.2003 23.6697 49.3445 21.8997C48.7867 20.7465 47.397 18.7133 46.5354 17.7901ZM32.785 16.5486C31.2168 18.6922 29.8099 20.1261 28.3071 21.1124C26.6647 22.1902 25.3983 22.5061 24.5181 22.0576C24.2624 21.9273 24.1352 21.7997 23.9241 21.4617C23.6954 21.0954 23.6546 20.9485 23.6496 20.4723C23.6376 19.3323 24.1322 18.515 25.4551 17.4885C27.5804 15.8393 30.3168 14.8789 33.4038 14.6986L34.0799 14.6591L33.8743 14.9998C33.7612 15.1872 33.271 15.8842 32.785 16.5486Z" fill="#CEDAE0"/>
</svg>
