<svg width="794" height="112" viewBox="0 0 794 112" fill="none" xmlns="http://www.w3.org/2000/svg">
<mask id="mask0_10_25" style="mask-type:alpha" maskUnits="userSpaceOnUse" x="0" y="0" width="794" height="112">
<rect width="794" height="112" fill="#D9D9D9"/>
</mask>
<g mask="url(#mask0_10_25)">
<rect x="148.809" y="-24.5719" width="22.967" height="252.874" transform="rotate(45 148.809 -24.5719)" fill="#0093DA"/>
<rect x="513.51" y="-21" width="22.967" height="252.874" transform="rotate(45 513.51 -21)" fill="#9DA9AF"/>
<rect x="207.518" y="-20.8776" width="22.967" height="252.874" transform="rotate(45 207.518 -20.8776)" fill="#0093DA"/>
<rect x="572.219" y="-17.3057" width="22.967" height="252.874" transform="rotate(45 572.219 -17.3057)" fill="#9DA9AF"/>
<rect x="265.428" y="-17.0168" width="22.967" height="252.874" transform="rotate(45 265.428 -17.0168)" fill="#0093DA"/>
<rect x="630.129" y="-13.4449" width="22.967" height="252.874" transform="rotate(45 630.129 -13.4449)" fill="#9DA9AF"/>
<rect x="327.199" y="-17.0168" width="22.967" height="252.874" transform="rotate(45 327.199 -17.0168)" fill="#0093DA"/>
<rect x="691.9" y="-13.4449" width="22.967" height="252.874" transform="rotate(45 691.9 -13.4449)" fill="#9DA9AF"/>
<rect x="389.935" y="-17.0168" width="22.967" height="252.874" transform="rotate(45 389.935 -17.0168)" fill="#0093DA"/>
<rect x="754.636" y="-13.4449" width="22.967" height="252.874" transform="rotate(45 754.636 -13.4449)" fill="#9DA9AF"/>
<rect x="450.74" y="-17.0168" width="22.967" height="252.874" transform="rotate(45 450.74 -17.0168)" fill="#9DA9AF"/>
<rect x="815.441" y="-13.4449" width="22.967" height="252.874" transform="rotate(45 815.441 -13.4449)" fill="#9DA9AF"/>
<rect x="874.809" y="-13.4449" width="22.967" height="252.874" transform="rotate(45 874.809 -13.4449)" fill="#9DA9AF"/>
</g>
</svg>
